<?xml version="1.0" standalone="no"?>
<!DOCTYPE svg PUBLIC "-//W3C//DTD SVG 20010904//EN"
 "http://www.w3.org/TR/2001/REC-SVG-20010904/DTD/svg10.dtd">
<svg version="1.0" xmlns="http://www.w3.org/2000/svg"
 width="180.000000pt" height="249.000000pt" viewBox="0 0 180.000000 249.000000"
 preserveAspectRatio="xMidYMid meet">

<g transform="translate(0.000000,249.000000) scale(0.100000,-0.100000)"
fill="#000000" stroke="none">
<path d="M783 2479 c-210 -25 -424 -141 -566 -308 -150 -174 -236 -445 -207
-648 39 -279 290 -734 715 -1297 82 -109 156 -206 163 -214 11 -14 13 -14 25
0 6 9 80 105 162 214 419 554 681 1030 715 1295 19 157 -26 364 -113 518 -53
93 -186 236 -279 297 -174 116 -404 170 -615 143z"/>
</g>
</svg>
